<svg xmlns="http://www.w3.org/2000/svg" viewBox="0 0 500 500">
  <path d="M148.756 167.22c12.803 13.09 28.016 19.69 42.843 18.586a47.209 54.302 0 0 0 6-.887c30.465-6.74 45.933-45.038 35.214-87.257-4.496-17.751-13.285-33.94-24.687-45.583-12.78-13.062-28.014-19.652-42.829-18.551a47.557 54.703 0 0 0-6 .888c-30.465 6.74-45.933 45.037-35.214 87.257 4.482 17.724 13.272 33.896 24.673 45.548Zm335.783 14.834c-1.202-11.146-5.94-20.152-13.707-26.032l-.105-.076a33.55 33.55 0 0 0-11.9-5.607l-.475-.117c-20.29-4.737-46.024 7.864-64.027 31.36-13.188 17.177-19.982 37.495-18.176 54.361 1.194 11.152 5.946 20.16 13.749 26.05l.086.062a33.615 33.615 0 0 0 11.899 5.607c20.392 5.098 46.343-7.447 64.637-31.24 13.085-17.18 19.83-37.496 18.02-54.368Zm-235.61 47.172c-37.333 0-147.573 100.378-125.295 176.537 21.51 73.529 88.71 43.224 124.42 43.224 43.638 0 102.91 30.305 124.419-43.224 23.864-84.067-84.783-176.537-123.599-176.537h.055Zm98.865-62.008c-12.802 13.088-28.015 19.69-42.842 18.587a41.546 41.546 0 0 1-6-.888c-30.466-6.74-45.934-45.038-35.214-87.258 4.496-17.75 13.285-33.94 24.687-45.582 12.78-13.063 28.014-19.652 42.83-18.55a47.73 54.903 0 0 1 5.999.886c30.466 6.742 45.932 45.038 35.213 87.259-4.482 17.724-13.271 33.896-24.673 45.546ZM15.461 182.213c1.209-11.2 5.969-20.25 13.773-26.157l.106-.077a33.723 33.723 0 0 1 11.956-5.634l.478-.118c20.388-4.76 46.247 7.902 64.337 31.51 13.252 17.262 20.08 37.678 18.264 54.624-1.2 11.207-5.975 20.259-13.815 26.177l-.087.063a33.796 33.796 0 0 1-11.956 5.634c-20.491 5.122-46.568-7.485-64.95-31.392-13.148-17.262-19.927-37.676-18.106-54.63Z"/>
</svg>
